<svg width="1030" height="1024" viewBox="0 0 1030 1024" fill="none" xmlns="http://www.w3.org/2000/svg">
<path opacity="0.5" d="M318.343 47.6942C198.405 148.217 179.819 338.298 98.5892 478.527C70.3124 527.322 33.7749 570.992 14.7119 625.123C-29.0536 749.026 31.1802 889.572 111.801 987.981C150.245 1034.93 195.149 1077.94 249.478 1097.72C291.258 1112.94 336.056 1113.57 380.033 1113.97L1150.5 1121.9C1236.52 1122.77 1332.1 1119.62 1393.95 1053.21C1436.57 1007.48 1453.89 940.692 1468.58 876.944C1486.64 798.613 1503 713.546 1474.91 638.94C1442.82 553.582 1361.67 505.21 1311.26 431.555C1229.45 312.223 1231.33 131.731 1127.14 36.4664C1078.51 -7.99593 1014.33 -25.4321 951.792 -34.1502C833.892 -50.6089 722.215 -19.5408 606.433 -23.8734C507.464 -27.572 400.447 -21.1259 318.343 47.6942Z" fill="#284931"/>
</svg>
