<?xml version="1.0" standalone="no"?>
<!DOCTYPE svg PUBLIC "-//W3C//DTD SVG 20010904//EN"
 "http://www.w3.org/TR/2001/REC-SVG-20010904/DTD/svg10.dtd">
<svg version="1.0" xmlns="http://www.w3.org/2000/svg"
 width="1796.000000pt" height="746.000000pt" viewBox="0 0 1796.000000 746.000000"
 preserveAspectRatio="xMidYMid meet">
<metadata>
Created by potrace 1.16, written by Peter Selinger 2001-2019
</metadata>
<g transform="translate(0.000000,746.000000) scale(0.100000,-0.100000)"
fill="#000000" stroke="none">
<path d="M3470 6364 c-465 -50 -888 -229 -1220 -513 -253 -218 -459 -494 -588
-787 -81 -182 -138 -386 -166 -592 -20 -145 -21 -434 -1 -584 116 -885 769
-1618 1635 -1837 344 -87 710 -89 1055 -6 109 26 273 78 316 101 42 21 46 18
53 -39 4 -28 17 -72 30 -97 47 -90 966 -1458 998 -1485 18 -16 57 -39 86 -53
45 -20 65 -24 130 -20 54 2 91 10 123 26 138 67 210 233 162 372 -28 83 -946
1458 -1020 1529 l-57 54 55 45 c449 380 724 886 789 1447 15 133 12 407 -5
542 -44 334 -164 652 -356 939 -71 105 -139 188 -247 298 -196 200 -365 323
-607 442 -245 120 -478 186 -772 218 -166 19 -224 19 -393 0z m472 -149 c739
-97 1366 -590 1642 -1288 54 -138 98 -299 122 -452 23 -151 23 -442 0 -590
-71 -450 -265 -840 -574 -1151 -127 -129 -303 -266 -391 -305 -25 -11 -60 -31
-78 -45 -51 -39 -225 -118 -346 -158 -522 -171 -1084 -130 -1572 116 -392 198
-709 514 -909 907 -221 435 -279 943 -161 1429 104 431 385 858 740 1129 287
217 628 361 970 407 137 19 418 19 557 1z"/>
<path d="M3698 5769 c-16 -9 -18 -31 -18 -234 0 -138 4 -226 10 -230 35 -21
-12 -25 -296 -23 l-305 3 1 229 c1 235 -2 256 -40 256 -37 0 -41 -22 -41 -241
0 -118 3 -223 6 -234 6 -18 -1 -22 -54 -33 -33 -7 -97 -31 -142 -54 -101 -50
-218 -161 -271 -257 l-35 -64 -255 2 c-224 2 -257 0 -272 -14 -20 -21 -20 -39
0 -59 13 -14 51 -16 256 -16 l240 0 -7 -22 c-5 -13 -10 -154 -12 -315 l-5
-292 -251 -1 c-166 0 -255 -4 -264 -11 -20 -18 -15 -47 11 -64 21 -14 58 -16
265 -13 l241 3 0 -252 0 -253 -243 0 c-257 0 -267 -2 -267 -47 0 -40 27 -44
277 -43 l238 1 20 -68 c46 -150 118 -255 239 -347 64 -48 114 -74 206 -105
l75 -26 3 -212 2 -213 25 -6 c52 -13 55 1 55 222 l0 204 317 0 c247 0 314 -3
305 -12 -17 -17 -17 -449 0 -466 19 -19 56 -14 68 8 13 24 10 426 -4 453 -8
16 8 17 265 17 151 0 291 3 312 6 l37 7 0 -210 c0 -149 3 -212 12 -221 18 -18
56 -14 68 7 6 12 10 104 10 229 l0 210 83 41 c140 68 236 163 307 305 22 43
40 85 40 92 0 16 16 19 25 4 9 -15 498 -13 513 2 19 19 14 46 -11 62 -18 13
-65 15 -265 13 l-244 -2 6 29 c3 16 6 146 6 290 l0 261 254 -3 c224 -3 255 -1
270 13 23 23 20 42 -8 60 -21 14 -59 16 -269 13 l-246 -3 -4 300 c-2 165 -7
310 -12 323 l-7 22 250 0 c241 0 252 1 262 20 15 29 -3 58 -43 65 -45 9 -459
1 -478 -8 -13 -7 -19 -1 -28 26 -16 48 -99 164 -150 210 -62 56 -155 114 -223
138 -32 12 -58 24 -58 26 0 2 7 11 15 19 12 13 15 52 15 225 0 126 -4 218 -10
230 -12 22 -52 25 -69 5 -9 -11 -11 -78 -9 -245 2 -190 1 -230 -10 -226 -8 3
-152 5 -320 5 l-307 0 3 236 c3 266 -2 287 -60 253z m701 -624 c149 -35 299
-155 361 -288 59 -126 61 -152 58 -781 -3 -569 -3 -571 -26 -636 -62 -170
-176 -286 -345 -348 l-72 -26 -641 -4 c-540 -2 -652 -1 -713 12 -188 39 -338
168 -409 352 l-27 69 -3 575 c-2 401 1 596 9 643 33 201 205 383 405 431 90
22 1311 22 1403 1z"/>
<path d="M3023 4975 c-97 -27 -184 -101 -227 -194 -21 -45 -21 -54 -21 -651
l0 -605 28 -57 c35 -72 97 -134 167 -167 l55 -26 680 0 680 0 55 27 c71 35
133 97 168 167 l27 56 0 605 0 605 -28 57 c-34 69 -118 149 -184 174 -45 17
-93 19 -698 21 -537 2 -659 0 -702 -12z"/>
<path d="M10045 4928 c-3 -7 -4 -375 -3 -818 l3 -805 106 -3 c80 -2 109 1 117
11 9 10 13 185 14 623 l3 609 205 -605 c113 -333 206 -613 208 -622 3 -16 17
-18 116 -18 l112 0 209 610 c116 335 213 610 217 610 5 0 9 -273 10 -607 l3
-608 104 -3 c67 -2 108 1 117 9 12 10 14 139 14 808 0 607 -3 800 -12 809 -8
8 -58 12 -159 12 l-147 0 -50 -142 c-27 -79 -127 -370 -222 -648 -95 -278
-176 -508 -179 -512 -3 -4 -105 288 -225 648 l-220 654 -168 0 c-126 0 -170
-3 -173 -12z"/>
<path d="M12660 4105 l0 -825 175 0 175 0 0 345 0 345 352 0 c324 -1 354 0
365 16 20 27 16 52 -12 80 -23 23 -25 32 -25 114 l0 90 -340 0 -340 0 0 180 0
180 393 2 392 3 0 145 0 145 -567 3 -568 2 0 -825z"/>
<path d="M6618 4810 c-78 -12 -202 -55 -268 -92 -213 -118 -333 -340 -359
-661 -12 -138 0 -309 29 -420 83 -328 330 -531 670 -553 328 -22 590 137 707
427 30 75 50 176 37 188 -5 5 -70 19 -144 30 -106 16 -137 18 -146 8 -6 -6
-16 -37 -23 -68 -32 -150 -126 -262 -253 -300 -57 -17 -87 -21 -153 -17 -189
12 -320 124 -376 320 -21 75 -24 103 -24 278 0 158 4 207 19 260 60 216 213
339 424 340 161 0 282 -93 334 -258 l23 -73 35 5 c191 27 259 40 264 51 6 18
-20 115 -49 180 -32 73 -65 120 -132 188 -64 65 -176 126 -278 152 -73 19
-260 27 -337 15z"/>
<path d="M7570 3850 l0 -530 44 0 44 0 4 248 c3 240 4 248 28 296 33 65 70 93
107 80 64 -22 82 -114 83 -421 l0 -203 46 0 46 0 -4 293 c-5 323 -11 363 -69
411 -60 51 -153 46 -206 -11 l-33 -34 0 200 0 201 -45 0 -45 0 0 -530z"/>
<path d="M9220 3850 l0 -530 45 0 45 0 0 146 c0 80 4 143 9 140 4 -3 46 -69
92 -146 l84 -140 62 0 c35 0 63 4 63 9 0 6 -48 85 -106 177 -58 93 -108 173
-111 180 -2 6 41 83 96 170 56 87 101 165 101 172 0 8 -18 12 -58 12 l-57 0
-85 -142 -85 -142 -3 312 -2 312 -45 0 -45 0 0 -530z"/>
<path d="M8284 4041 c-108 -49 -165 -229 -144 -456 10 -98 39 -185 78 -229 61
-68 206 -73 282 -10 27 23 30 31 30 85 0 67 -12 75 -49 35 -30 -31 -81 -56
-117 -56 -19 0 -39 12 -64 39 -36 38 -44 58 -65 169 l-7 32 168 0 167 0 -6
103 c-11 166 -48 255 -121 288 -52 24 -100 24 -152 0z m107 -101 c26 -14 58
-80 66 -135 l6 -45 -112 0 c-102 0 -111 2 -111 19 0 37 31 107 62 138 33 34
56 40 89 23z"/>
<path d="M8855 4046 c-54 -20 -107 -82 -136 -158 -22 -57 -24 -79 -24 -223 0
-155 1 -162 29 -223 48 -103 121 -150 217 -139 26 3 62 13 78 22 30 15 31 18
31 80 0 36 -3 65 -7 65 -3 0 -21 -12 -40 -26 -97 -73 -184 -12 -214 152 -22
118 8 249 72 316 35 37 42 40 78 35 22 -3 52 -14 67 -26 15 -12 31 -21 35 -21
5 0 9 29 9 65 0 55 -3 66 -21 76 -35 18 -130 21 -174 5z"/>
<path d="M11650 3989 c0 -6 38 -120 85 -254 l86 -242 -22 -58 c-30 -80 -60
-109 -105 -101 l-34 7 0 -46 0 -45 59 0 c50 0 65 4 91 26 17 15 38 40 46 56
21 41 234 636 234 654 0 12 -11 14 -47 12 l-47 -3 -60 -182 c-33 -101 -64
-183 -67 -183 -4 0 -10 12 -14 28 -3 15 -29 98 -56 185 l-50 157 -49 0 c-30 0
-50 -4 -50 -11z"/>
<path d="M14070 3853 c-8 -3 -25 -15 -37 -26 l-23 -20 0 21 c0 20 -5 22 -50
22 l-50 0 0 -255 0 -255 50 0 50 0 0 163 c0 137 3 168 19 204 24 52 61 79 90
64 42 -23 52 -15 49 37 l-3 47 -40 2 c-22 1 -47 -1 -55 -4z"/>
<path d="M14450 3849 c-13 -6 -33 -17 -42 -26 -17 -15 -18 -15 -18 5 0 20 -5
22 -50 22 l-50 0 0 -255 0 -255 50 0 50 0 0 174 c0 164 1 175 23 207 12 19 35
40 51 48 25 12 31 11 55 -6 46 -35 51 -55 51 -245 l0 -178 50 0 50 0 0 168 c0
187 9 220 68 255 25 15 34 16 57 5 49 -22 55 -50 55 -248 l0 -180 51 0 51 0
-4 203 c-4 182 -6 206 -25 242 -24 44 -43 59 -92 70 -58 13 -118 -3 -156 -40
l-33 -34 -17 25 c-30 46 -115 67 -175 43z"/>
<path d="M15935 3851 c-16 -4 -45 -15 -62 -25 -30 -15 -33 -21 -33 -61 0 -52
15 -58 57 -25 36 28 95 42 127 31 25 -10 56 -57 56 -85 0 -9 -10 -18 -22 -20
-13 -3 -59 -12 -102 -20 -119 -23 -164 -78 -154 -188 9 -93 57 -131 160 -126
54 3 72 8 93 28 l25 23 0 -21 c0 -19 5 -22 45 -22 l45 0 0 203 c0 221 -6 249
-61 290 -29 21 -125 31 -174 18z m145 -296 c0 -129 -138 -200 -179 -92 -26 68
39 122 152 126 25 1 27 -2 27 -34z"/>
<path d="M16510 3853 c-8 -3 -25 -15 -37 -26 l-23 -20 0 21 c0 20 -5 22 -50
22 l-50 0 0 -255 0 -255 50 0 50 0 0 165 c0 146 2 170 20 205 26 51 61 75 89
61 42 -23 52 -15 49 37 l-3 47 -40 2 c-22 1 -47 -1 -55 -4z"/>
<path d="M16825 3841 c-87 -40 -129 -122 -129 -256 -1 -81 3 -97 29 -150 43
-86 82 -107 195 -103 49 2 98 10 115 18 26 13 30 21 33 63 2 26 -1 47 -6 47
-5 0 -31 -12 -56 -26 -83 -46 -167 -20 -202 63 -8 18 -14 42 -14 53 0 19 6 20
156 20 l156 0 -4 73 c-5 100 -37 164 -98 195 -54 27 -120 28 -175 3z m139 -90
c18 -16 46 -70 46 -91 0 -6 -41 -10 -111 -10 -110 0 -110 0 -103 23 12 38 46
79 78 93 34 14 61 10 90 -15z"/>
<path d="M13630 3595 l0 -255 50 0 50 0 0 255 0 255 -50 0 -50 0 0 -255z"/>
<path d="M15062 3833 c3 -10 34 -125 69 -255 l64 -238 47 0 47 0 14 48 c8 26
29 103 48 171 l33 125 17 -58 c10 -31 30 -109 45 -172 l28 -115 50 3 c46 3 51
5 58 33 5 17 33 122 63 234 30 113 55 213 55 223 0 15 -8 18 -43 18 l-43 0
-43 -180 c-24 -99 -45 -180 -46 -180 -2 0 -23 81 -46 180 l-43 181 -44 -3 -45
-3 -47 -173 c-26 -95 -49 -174 -51 -176 -2 -3 -24 76 -48 175 l-45 179 -49 0
c-42 0 -49 -3 -45 -17z"/>
</g>
</svg>
