<svg width="1440" height="1024" viewBox="0 0 1440 1024" fill="none" xmlns="http://www.w3.org/2000/svg">
<rect width="1440" height="1024" fill="white"/>
<path opacity="0.5" d="M728.343 47.6942C608.405 148.217 589.819 338.298 508.589 478.527C480.312 527.322 443.775 570.992 424.712 625.123C380.946 749.026 441.18 889.572 521.801 987.981C560.245 1034.93 605.149 1077.94 659.478 1097.72C701.258 1112.94 746.056 1113.57 790.033 1113.97L1560.5 1121.9C1646.52 1122.77 1742.1 1119.62 1803.95 1053.21C1846.57 1007.48 1863.89 940.692 1878.58 876.944C1896.64 798.613 1913 713.546 1884.91 638.94C1852.82 553.582 1771.67 505.21 1721.26 431.555C1639.45 312.223 1641.33 131.731 1537.14 36.4664C1488.51 -7.99593 1424.33 -25.4321 1361.79 -34.1502C1243.89 -50.6089 1132.21 -19.5408 1016.43 -23.8734C917.464 -27.572 810.447 -21.1259 728.343 47.6942Z" fill="#284931"/>
<g clip-path="url(#clip0)">
<path d="M1165.74 237.132L1135.46 278.99C1182.81 301.06 1216.97 342.156 1220.85 390.101H897.927C901.808 342.156 935.187 301.06 982.539 278.99L952.265 237.132C950.712 234.088 951.489 231.044 953.817 229.522C956.146 228 959.251 228.761 961.58 231.044L992.63 275.184C1012.81 267.574 1035.32 263.008 1059.39 263.008C1083.45 263.008 1105.19 267.574 1126.15 275.184L1157.2 231.044C1158.75 228.761 1161.85 228 1164.18 229.522C1166.51 231.044 1167.29 234.088 1165.74 237.132ZM991.078 345.961C1001.17 345.961 1008.93 338.351 1008.93 328.457C1008.93 319.325 1001.17 310.953 991.078 310.953C981.763 310.953 973.224 319.325 973.224 328.457C973.224 338.351 981.763 345.961 991.078 345.961ZM1129.25 345.961C1139.34 345.961 1147.11 338.351 1147.11 328.457C1147.11 319.325 1139.34 310.953 1129.25 310.953C1119.94 310.953 1111.4 319.325 1111.4 328.457C1111.4 338.351 1119.94 345.961 1129.25 345.961ZM804 588.733V447.94C804 428.153 819.525 411.41 840.484 411.41C860.667 411.41 876.192 428.153 876.192 447.94V588.733C876.192 609.281 860.667 625.262 840.484 625.262C819.525 625.262 804 609.281 804 588.733ZM1241.03 588.733V447.94C1241.03 428.153 1257.33 411.41 1277.52 411.41C1297.7 411.41 1314 428.153 1314 447.94V588.733C1314 609.281 1297.7 625.262 1277.52 625.262C1257.33 625.262 1241.03 609.281 1241.03 588.733ZM898.703 670.164V412.171H1221.63V670.164C1221.63 685.384 1208.43 698.322 1192.9 698.322H1161.08V778.231C1161.08 798.018 1144.78 814 1124.59 814C1104.41 814 1088.11 798.018 1088.11 778.231V698.322H1031.44V778.231C1031.44 798.018 1015.92 814 995.735 814C974.776 814 959.251 798.018 959.251 778.231V698.322H926.648C911.9 698.322 898.703 685.384 898.703 670.164Z" fill="#284931"/>
</g>
<defs>
<clipPath id="clip0">
<rect width="510" height="586" fill="white" transform="translate(804 228)"/>
</clipPath>
</defs>
</svg>
