<svg width="913" height="347" viewBox="0 0 913 347" fill="none" xmlns="http://www.w3.org/2000/svg">
<path d="M119.517 0.139411C88.4168 3.53941 65.2168 13.2394 43.5168 31.8394C22.8168 49.5394 8.11676 74.9394 1.91676 103.739C-0.783242 116.039 -0.583242 141.739 2.21676 154.539C7.91676 180.139 18.9168 200.239 37.4168 218.639C52.7168 234.039 68.0168 243.539 87.9168 250.039C114.617 258.739 142.617 258.539 169.417 249.439C174.117 247.839 178.317 246.539 178.717 246.539C179.217 246.539 179.517 247.639 179.517 249.039C179.517 250.539 180.217 253.039 181.117 254.639C184.917 262.039 238.517 341.339 240.717 342.739C241.917 343.539 244.717 344.839 246.817 345.439C251.317 346.939 258.117 345.639 262.717 342.439C268.817 338.039 271.417 327.139 268.017 320.439C264.217 313.239 211.117 234.839 208.517 232.739L205.617 230.439L213.317 223.639C235.117 204.439 249.817 177.439 254.617 147.539C256.217 137.739 255.817 115.439 254.017 105.539C248.817 78.5394 237.817 57.8394 218.017 38.0394C194.317 14.2394 166.617 1.93941 132.517 0.239411C127.317 -0.0605887 121.417 -0.0605887 119.517 0.139411ZM149.017 10.0394C161.517 12.4394 170.217 15.3394 181.117 20.6394C214.817 37.2394 238.817 69.0394 246.017 106.739C248.117 117.639 248.017 139.039 245.917 150.339C241.417 174.239 229.617 196.539 212.017 213.839C205.217 220.639 192.217 230.539 190.217 230.539C189.617 230.539 187.717 231.639 186.017 233.039C178.817 238.439 160.517 244.839 145.517 247.139C73.4168 257.939 7.51676 201.339 7.51676 128.339C7.51676 78.2394 40.4168 31.7394 87.5168 15.1394C105.717 8.73941 131.017 6.63941 149.017 10.0394Z" fill="#274B31"/>
<path d="M129.717 35.4394C128.717 36.0394 128.517 39.6394 128.717 49.8394L129.017 63.5394H111.517H94.0167L94.3167 51.9394C94.7167 38.5394 94.2167 35.5394 91.6167 35.5394C89.2167 35.5394 88.9167 37.3394 89.0167 52.2394C89.1167 63.1394 89.0167 64.5394 87.5167 64.5394C86.5167 64.5394 82.6167 66.1394 78.7167 68.0394C71.4167 71.7394 64.7167 78.1394 61.8167 84.0394L60.4167 87.0394L45.1167 86.7394C31.6167 86.4394 29.7167 86.6394 29.1167 88.0394C28.8167 88.9394 28.7167 90.1394 29.1167 90.6394C29.4167 91.1394 36.2167 91.5394 44.2167 91.5394H58.7167L58.1167 93.7394C57.8167 95.0394 57.5167 103.339 57.5167 112.239V128.439L42.3167 128.739C27.3167 129.039 27.0167 129.039 26.7167 131.239L26.4167 133.539H41.9167H57.4167L57.2167 148.239L57.0167 163.039L42.2167 163.339C27.5167 163.639 27.4167 163.639 27.7167 165.839C28.0167 167.939 28.4167 168.039 42.7167 168.339L57.5167 168.639L58.1167 171.339C59.5167 177.139 65.0167 185.839 70.4167 190.639C75.1167 194.839 78.8167 196.739 88.2167 200.039C88.9167 200.239 89.3167 203.539 89.3167 209.739C89.3167 225.639 89.3167 225.539 91.4167 225.539C94.1167 225.539 94.5167 223.739 94.5167 211.439V200.539H112.317H130.017V214.739C130.017 228.339 130.117 229.039 132.017 229.039C133.917 229.039 134.017 228.339 134.017 214.739V200.539H151.717H169.417L169.717 212.739C170.017 223.839 170.217 225.039 171.917 225.339C174.917 225.939 175.517 223.739 175.517 210.939V198.739L180.917 196.139C187.417 192.939 194.517 185.539 198.117 178.339L200.717 173.039L216.117 173.339C229.717 173.639 231.617 173.439 232.217 171.939C233.317 169.039 230.317 168.539 215.717 168.739L201.517 169.039L201.717 152.039L202.017 135.139L216.617 135.439C228.717 135.639 231.317 135.439 232.417 134.139C234.917 131.139 232.617 130.539 217.017 130.539H201.617L201.317 111.539L201.017 92.5394H215.017C229.217 92.5394 232.017 91.9394 230.817 88.8394C230.417 87.7394 227.317 87.4394 214.817 87.6394L199.317 87.7394L196.817 83.3394C192.517 75.6394 183.017 67.6394 176.317 66.0394C173.417 65.3394 172.717 64.1394 174.517 63.0394C176.117 62.0394 175.817 39.3394 174.117 37.0394C172.917 35.3394 172.517 35.3394 171.017 36.5394C169.617 37.7394 169.417 39.7394 169.717 51.2394C169.917 62.0394 169.717 64.4394 168.717 64.0394C167.917 63.7394 159.617 63.5394 150.217 63.5394H133.017L133.317 50.2394C133.617 39.9394 133.317 36.6394 132.317 35.7394C131.517 35.1394 130.417 35.0394 129.717 35.4394ZM176.817 74.3394C181.617 76.7394 184.717 79.1394 187.517 82.6394C194.517 91.4394 194.617 92.6394 194.317 134.139C194.017 170.739 194.017 171.039 191.617 175.539C188.417 181.639 180.517 188.939 174.717 191.139C170.517 192.739 165.617 193.039 131.617 193.339C94.8167 193.639 92.9167 193.539 86.2167 191.539C77.2167 188.739 69.9167 181.939 66.6167 173.139C64.5167 167.339 64.4167 166.239 64.7167 130.639C65.0167 95.6394 65.1167 93.8394 67.1167 89.4394C71.1167 80.7394 80.4167 73.4394 89.8167 71.5394C92.1167 71.0394 111.117 70.7394 132.017 70.8394L170.017 71.0394L176.817 74.3394Z" fill="#274B31"/>
<path d="M89.1168 82.0394C83.4168 84.0394 80.4168 86.5394 77.5168 91.6394L75.0168 96.0394L74.7168 127.839C74.3168 163.439 74.8168 168.039 79.7168 173.939C85.9168 181.439 86.1168 181.539 129.617 181.539H168.117L173.217 179.039C176.417 177.439 179.317 174.939 181.117 172.339L184.017 168.239L184.317 133.639C184.517 114.639 184.317 97.5394 184.017 95.7394C183.117 91.1394 175.217 83.0394 170.017 81.6394C163.617 79.9394 94.1168 80.2394 89.1168 82.0394Z" fill="#274B31"/>
<path d="M296.717 85.4394C289.417 88.1394 285.517 90.7394 280.217 96.4394C271.317 105.939 268.117 115.739 268.217 133.039C268.217 142.239 268.717 146.539 270.317 151.239C276.717 171.239 293.717 182.739 314.317 181.239C330.117 180.039 340.917 172.739 347.017 159.239C351.317 149.539 351.617 150.239 341.817 147.139C336.917 145.739 332.517 144.539 331.817 144.539C331.217 144.539 330.417 145.839 330.017 147.439C328.917 152.539 323.817 159.339 319.617 161.539C314.817 163.939 307.317 164.139 302.317 162.139C297.817 160.239 291.917 153.639 290.517 148.839C289.817 146.739 289.117 140.539 288.817 135.039C287.717 114.739 293.417 104.139 306.717 101.339C316.317 99.3394 324.917 103.639 328.717 112.239C330.317 115.839 331.017 116.439 332.817 116.039C351.817 111.239 351.317 111.639 347.017 103.239C343.217 95.9394 337.317 90.1394 330.117 86.8394C324.817 84.4394 322.617 84.0394 313.017 83.7394C304.117 83.5394 301.017 83.9394 296.717 85.4394Z" fill="#274B31"/>
<path d="M497.017 84.7394C496.717 85.4394 496.617 106.939 496.717 132.539L497.017 179.039H503.517H510.017L510.317 142.539L510.617 106.039L519.517 132.039C524.317 146.339 530.017 162.839 532.017 168.739L535.717 179.539H542.017H548.217L560.617 143.739L573.017 108.039L573.517 143.539L574.017 179.039H580.517H587.017V131.539V84.0394H578.117H569.317L567.917 87.5394C567.217 89.4394 561.217 106.739 554.617 126.039C548.117 145.239 542.417 160.339 542.117 159.539C541.817 158.739 535.917 141.339 529.217 121.039L516.817 84.0394L507.117 83.7394C500.017 83.5394 497.317 83.8394 497.017 84.7394Z" fill="#274B31"/>
<path d="M644.517 132.539V180.539H654.517H664.517V160.539V140.539H684.517H704.517V131.539V122.539H684.517H664.517V112.039V101.539H687.517H710.517V93.0394V84.5394H677.517H644.517V132.539Z" fill="#274B31"/>
<path d="M355.517 147.539V178.539H358.317H361.017V163.739C361.017 151.739 361.317 148.439 362.817 145.839C365.117 141.639 368.117 140.739 370.917 143.439C372.817 145.439 373.017 146.839 373.317 162.139L373.617 178.639L376.317 178.339L379.017 178.039L379.117 164.539C379.417 141.639 377.317 135.539 369.317 135.539C366.917 135.539 364.817 136.239 363.617 137.439C362.517 138.539 361.417 139.139 361.117 138.739C360.817 138.439 360.517 133.339 360.517 127.339V116.539H358.017H355.517V147.539Z" fill="#274B31"/>
<path d="M452.517 116.739C452.417 117.339 452.417 168.339 452.517 173.239C452.517 178.139 452.717 178.539 455.017 178.539C457.417 178.539 457.417 178.339 457.717 169.739L458.017 161.039L463.017 169.739C467.917 178.239 468.117 178.439 471.817 178.539C473.817 178.539 475.517 178.339 475.517 178.139C475.517 177.839 472.517 172.939 468.917 167.139L462.317 156.539L468.417 146.939C471.717 141.739 474.517 137.239 474.517 136.939C474.517 136.739 472.917 136.539 471.117 136.539C467.817 136.539 467.317 137.039 462.817 144.539L458.017 152.539L457.717 134.539L457.517 116.539H455.017C453.617 116.539 452.517 116.639 452.517 116.739Z" fill="#274B31"/>
<path d="M710.017 135.539C708.917 137.239 710.517 140.539 712.417 140.539C714.817 140.539 716.717 138.239 715.917 136.139C715.217 134.339 711.017 133.939 710.017 135.539Z" fill="#274B31"/>
<path d="M394.617 138.639C390.617 142.639 389.017 148.239 389.117 158.539C389.317 175.439 396.517 182.939 408.017 178.139C411.217 176.739 411.517 176.239 411.517 172.539V168.439L407.817 171.039C405.717 172.439 403.317 173.539 402.417 173.539C399.217 173.539 394.517 166.339 394.517 161.439C394.517 159.739 395.317 159.539 402.417 159.539C406.817 159.539 411.017 159.239 411.917 158.939C415.317 157.639 412.817 142.739 408.517 138.339C404.417 134.339 398.817 134.439 394.617 138.639ZM404.917 143.439C405.817 144.439 406.917 146.939 407.217 148.939L407.817 152.539H401.117C397.217 152.539 394.517 152.139 394.517 151.539C394.517 149.639 398.417 142.739 399.717 142.239C402.117 141.239 403.217 141.539 404.917 143.439Z" fill="#274B31"/>
<path d="M426.917 139.039C422.717 143.539 421.517 147.839 421.517 158.839C421.517 174.439 428.317 182.039 438.917 178.539C442.217 177.439 442.517 177.039 442.517 173.339V169.339L438.917 171.539C434.317 174.439 431.117 173.139 428.517 167.239C423.017 155.139 429.717 138.339 438.317 142.639C439.817 143.339 441.317 144.139 441.817 144.339C442.217 144.539 442.517 142.939 442.517 140.739C442.517 136.139 441.617 135.539 434.817 135.539C430.917 135.539 429.817 136.039 426.917 139.039Z" fill="#274B31"/>
<path d="M594.817 140.739C595.017 142.039 597.317 148.639 599.717 155.539C604.017 167.539 604.117 168.339 602.817 172.039C601.317 176.339 600.117 177.539 596.817 177.539C595.017 177.539 594.517 178.139 594.517 180.039C594.517 182.139 595.017 182.539 597.617 182.539C601.717 182.539 604.217 181.039 606.017 177.439C608.017 173.639 619.517 141.439 619.517 139.739C619.517 139.139 618.417 138.539 617.117 138.539C614.917 138.539 614.317 139.539 611.017 149.639C608.717 156.439 607.017 160.239 606.517 159.439C606.217 158.639 604.517 153.639 602.917 148.339C600.117 138.939 599.917 138.539 597.117 138.539C594.717 138.539 594.317 138.839 594.817 140.739Z" fill="#274B31"/>
<path d="M734.617 148.239C732.817 149.439 732.017 149.539 731.717 148.739C731.517 148.039 730.217 147.539 728.917 147.539H726.517V162.539V177.539H729.017C731.517 177.539 731.517 177.439 731.517 169.239C731.517 155.839 733.917 150.739 739.417 152.239C741.417 152.739 741.617 152.439 741.317 149.939C740.917 146.439 738.117 145.739 734.617 148.239Z" fill="#274B31"/>
<path d="M757.517 148.039C754.517 149.739 753.117 149.939 754.017 148.539C754.417 147.939 753.317 147.539 751.617 147.539H748.517V162.539V177.539H751.017C752.417 177.539 753.517 177.239 753.517 176.739C753.717 164.739 754.417 156.539 755.317 154.839C757.117 151.539 760.317 150.939 762.817 153.339C764.517 155.139 764.917 157.039 765.317 166.539C765.717 177.339 765.817 177.539 768.117 177.539C770.517 177.539 770.517 177.439 770.517 167.139C770.517 158.239 770.817 156.439 772.617 154.139C775.117 151.039 776.817 150.839 779.517 153.539C781.317 155.339 781.517 156.839 781.517 166.539V177.539H784.117H786.717L786.317 164.539C786.017 152.639 785.817 151.439 783.717 149.339C780.617 146.139 774.517 146.239 771.117 149.439C769.717 150.839 768.517 151.339 768.517 150.739C768.517 149.439 763.417 146.539 761.317 146.539C760.617 146.639 758.917 147.239 757.517 148.039Z" fill="#274B31"/>
<path d="M843.517 147.839C840.817 148.739 839.917 149.639 839.717 151.739C839.317 155.039 839.217 154.939 844.017 153.039C848.317 151.139 851.317 151.839 852.417 154.839C853.617 157.939 853.217 158.239 847.417 159.039C840.217 160.039 837.017 163.039 837.017 168.839C837.017 175.039 839.417 177.539 845.517 177.539C848.017 177.539 850.717 176.939 851.417 176.239C852.517 175.239 852.817 175.239 853.217 176.239C853.517 176.939 854.817 177.539 856.117 177.539C858.517 177.539 858.517 177.539 858.517 166.039C858.517 153.439 857.617 150.139 853.417 147.939C850.117 146.239 848.217 146.239 843.517 147.839ZM853.517 163.939C853.517 169.239 848.217 174.539 844.717 172.639C840.317 170.339 842.017 164.039 847.317 163.239C852.617 162.439 853.517 162.539 853.517 163.939Z" fill="#274B31"/>
<path d="M876.817 148.039C875.517 148.939 874.517 149.139 874.517 148.639C874.517 147.139 869.817 147.239 869.417 148.739C869.217 149.439 869.017 156.139 869.017 163.539V177.039L871.717 177.339L874.317 177.639L874.717 166.739C874.917 157.539 875.317 155.439 877.017 153.539C878.317 152.039 879.617 151.639 881.317 152.039C883.417 152.539 883.617 152.339 883.317 149.839C882.917 146.439 880.117 145.739 876.817 148.039Z" fill="#274B31"/>
<path d="M896.517 148.339C891.517 150.839 889.317 155.339 889.317 163.039C889.317 173.239 892.817 177.439 901.317 177.539C907.917 177.539 910.517 176.239 910.517 173.039C910.517 170.139 910.517 170.139 906.917 172.039C905.317 172.839 903.217 173.539 902.217 173.539C899.717 173.539 894.517 168.139 894.517 165.639C894.517 163.639 895.117 163.539 903.517 163.539H912.517V160.039C912.517 154.239 910.017 149.639 906.117 148.039C901.617 146.139 900.717 146.139 896.517 148.339ZM903.117 152.139C905.117 152.639 907.517 156.239 907.517 158.539C907.517 159.139 904.617 159.539 901.017 159.539C897.417 159.539 894.517 159.339 894.517 159.039C894.517 157.639 897.617 152.639 898.717 152.239C900.517 151.539 900.717 151.539 903.117 152.139Z" fill="#274B31"/>
<path d="M710.517 162.539V177.539H713.017H715.517V162.539V147.539H713.017H710.517V162.539Z" fill="#274B31"/>
<path d="M793.917 149.239C794.217 150.239 795.617 155.539 797.017 161.039C801.417 177.839 801.317 177.739 804.317 177.339C806.717 177.039 807.117 176.239 809.417 167.739C810.717 162.739 812.117 158.539 812.517 158.539C812.917 158.539 814.017 162.039 815.017 166.239C817.317 176.039 818.017 177.539 820.917 177.539C823.017 177.539 823.517 176.439 826.917 163.739C828.917 156.239 830.517 149.439 830.517 148.739C830.517 148.139 829.517 147.539 828.217 147.539C825.717 147.539 825.217 148.939 822.417 162.339C821.817 165.339 820.917 167.339 820.517 166.839C820.117 166.439 818.717 161.839 817.517 156.739C815.317 147.839 815.117 147.439 812.717 147.739C810.317 148.039 809.917 148.839 807.617 157.739C806.217 163.139 804.817 167.539 804.517 167.539C804.117 167.539 802.817 163.039 801.517 157.539C799.217 147.739 799.117 147.539 796.317 147.539C794.017 147.539 793.517 147.939 793.917 149.239Z" fill="#274B31"/>
</svg>
